<svg width="70" height="70" viewBox="0 0 70 70" fill="none" xmlns="http://www.w3.org/2000/svg">
<mask id="mask0_8013_44780" style="mask-type:luminance" maskUnits="userSpaceOnUse" x="0" y="0" width="70" height="70">
<path d="M70 0H0V70H70V0Z" fill="white"/>
</mask>
<g mask="url(#mask0_8013_44780)">
<mask id="mask1_8013_44780" style="mask-type:luminance" maskUnits="userSpaceOnUse" x="0" y="0" width="70" height="70">
<path d="M0 0H70V70H0V0Z" fill="white"/>
</mask>
<g mask="url(#mask1_8013_44780)">
<path d="M67.0001 35.5342C67.0001 17.7932 52.618 3.41113 34.877 3.41113C17.1359 3.41113 2.75391 17.7932 2.75391 35.5342C2.75391 53.2753 17.1359 67.6573 34.877 67.6573C52.618 67.6573 67.0001 53.2753 67.0001 35.5342Z" fill="#DCE3F0"/>
</g>
<mask id="mask2_8013_44780" style="mask-type:luminance" maskUnits="userSpaceOnUse" x="4" y="31" width="62" height="8">
<path d="M66 31.3037H4V38.6967H66V31.3037Z" fill="white"/>
</mask>
<g mask="url(#mask2_8013_44780)">
<path d="M17.8399 34.812H19.1001C19.2393 34.812 19.3521 34.9113 19.3521 35.0338C19.3521 35.1562 19.2393 35.2556 19.1001 35.2556H17.8399C17.7007 35.2556 17.5879 35.1562 17.5879 35.0338C17.5879 34.9113 17.7007 34.812 17.8399 34.812Z" fill="#879DC7"/>
<path d="M20.3614 34.812H21.6216C21.7608 34.812 21.8736 34.9113 21.8736 35.0338C21.8736 35.1562 21.7608 35.2556 21.6216 35.2556H20.3614C20.2222 35.2556 20.1094 35.1562 20.1094 35.0338C20.1094 34.9113 20.2222 34.812 20.3614 34.812Z" fill="#879DC7"/>
<path d="M22.879 34.812H24.1391C24.2784 34.812 24.3912 34.9113 24.3912 35.0338C24.3912 35.1562 24.2784 35.2556 24.1391 35.2556H22.879C22.7398 35.2556 22.627 35.1562 22.627 35.0338C22.627 34.9113 22.7398 34.812 22.879 34.812Z" fill="#879DC7"/>
<path d="M25.4005 34.812H26.6606C26.7998 34.812 26.9127 34.9113 26.9127 35.0338C26.9127 35.1562 26.7998 35.2556 26.6606 35.2556H25.4005C25.2613 35.2556 25.1484 35.1562 25.1484 35.0338C25.1484 34.9113 25.2613 34.812 25.4005 34.812Z" fill="#879DC7"/>
<path d="M27.92 34.812H29.1802C29.3194 34.812 29.4322 34.9113 29.4322 35.0338C29.4322 35.1562 29.3194 35.2556 29.1802 35.2556H27.92C27.7808 35.2556 27.668 35.1562 27.668 35.0338C27.668 34.9113 27.7808 34.812 27.92 34.812Z" fill="#879DC7"/>
<path d="M30.4395 34.812H31.6997C31.8389 34.812 31.9517 34.9113 31.9517 35.0338C31.9517 35.1562 31.8389 35.2556 31.6997 35.2556H30.4395C30.3003 35.2556 30.1875 35.1562 30.1875 35.0338C30.1875 34.9113 30.3003 34.812 30.4395 34.812Z" fill="#879DC7"/>
<path d="M32.961 34.812H34.2212C34.3604 34.812 34.4732 34.9113 34.4732 35.0338C34.4732 35.1562 34.3604 35.2556 34.2212 35.2556H32.961C32.8218 35.2556 32.709 35.1562 32.709 35.0338C32.709 34.9113 32.8218 34.812 32.961 34.812Z" fill="#879DC7"/>
<path d="M35.4825 34.812H36.7427C36.8819 34.812 36.9947 34.9113 36.9947 35.0338C36.9947 35.1562 36.8819 35.2556 36.7427 35.2556H35.4825C35.3433 35.2556 35.2305 35.1562 35.2305 35.0338C35.2305 34.9113 35.3433 34.812 35.4825 34.812Z" fill="#879DC7"/>
<path d="M38.002 34.812H39.2622C39.4013 34.812 39.5142 34.9113 39.5142 35.0338C39.5142 35.1562 39.4013 35.2556 39.2622 35.2556H38.002C37.8628 35.2556 37.75 35.1562 37.75 35.0338C37.75 34.9113 37.8628 34.812 38.002 34.812Z" fill="#879DC7"/>
<path d="M40.5235 34.812H41.7837C41.9228 34.812 42.0357 34.9113 42.0357 35.0338C42.0357 35.1562 41.9228 35.2556 41.7837 35.2556H40.5235C40.3843 35.2556 40.2715 35.1562 40.2715 35.0338C40.2715 34.9113 40.3843 34.812 40.5235 34.812Z" fill="#879DC7"/>
<path d="M43.043 34.812H44.3032C44.4423 34.812 44.5552 34.9113 44.5552 35.0338C44.5552 35.1562 44.4423 35.2556 44.3032 35.2556H43.043C42.9038 35.2556 42.791 35.1562 42.791 35.0338C42.791 34.9113 42.9038 34.812 43.043 34.812Z" fill="#879DC7"/>
<path d="M45.5626 34.812H46.8227C46.9619 34.812 47.0748 34.9113 47.0748 35.0338C47.0748 35.1562 46.9619 35.2556 46.8227 35.2556H45.5626C45.4234 35.2556 45.3105 35.1562 45.3105 35.0338C45.3105 34.9113 45.4234 34.812 45.5626 34.812Z" fill="#879DC7"/>
<path d="M48.0821 34.812H49.3423C49.4814 34.812 49.5943 34.9113 49.5943 35.0338C49.5943 35.1562 49.4814 35.2556 49.3423 35.2556H48.0821C47.9429 35.2556 47.8301 35.1562 47.8301 35.0338C47.8301 34.9113 47.9429 34.812 48.0821 34.812Z" fill="#879DC7"/>
<path d="M50.6016 34.812H51.8618C52.0009 34.812 52.1138 34.9113 52.1138 35.0338C52.1138 35.1562 52.0009 35.2556 51.8618 35.2556H50.6016C50.4624 35.2556 50.3496 35.1562 50.3496 35.0338C50.3496 34.9113 50.4624 34.812 50.6016 34.812Z" fill="#879DC7"/>
<path d="M10.5518 31.8889C10.6159 31.8541 10.6967 31.8541 10.7608 31.8889L13.9639 33.6238C14.0399 33.6649 14.0755 33.7455 14.0512 33.8211C14.0269 33.8966 13.9486 33.9487 13.8594 33.9487H7.45326C7.36412 33.9487 7.28574 33.8966 7.26146 33.8211C7.23718 33.7455 7.2728 33.665 7.34875 33.6238L10.5518 31.8889ZM13.586 34.1443V34.3197C13.586 34.4167 13.4967 34.4952 13.3866 34.4952H7.92607C7.81601 34.4952 7.72679 34.4167 7.72679 34.3197V34.1443H13.586ZM8.78995 36.9196H7.99252V34.7017H8.78995V36.9196ZM10.3007 36.9196H9.50329V34.7017H10.3007V36.9196ZM11.8114 36.9196H11.014V34.7017H11.8114V36.9196ZM13.322 36.9196H12.5247V34.7017H13.322V36.9196ZM13.8593 37.1192C13.9695 37.1192 14.0587 37.1977 14.0587 37.2947V37.7625C14.0587 37.8594 13.9695 37.9379 13.8593 37.9379H7.45351C7.34337 37.9379 7.25407 37.8594 7.25407 37.7625V37.2947C7.25407 37.1977 7.34337 37.1192 7.45351 37.1192H13.8593Z" fill="#15264A"/>
<path d="M58.9386 31.8889C59.0027 31.8541 59.0835 31.8541 59.1475 31.8889L62.3506 33.6238C62.4266 33.6649 62.4621 33.7455 62.4379 33.8211C62.4137 33.8966 62.3353 33.9487 62.2461 33.9487H55.8401C55.7509 33.9487 55.6725 33.8966 55.6482 33.8211C55.6239 33.7455 55.6595 33.665 55.7355 33.6238L58.9386 31.8889ZM61.9727 34.1443V34.3197C61.9727 34.4167 61.8835 34.4952 61.7733 34.4952H56.3128C56.2026 34.4952 56.1135 34.4167 56.1135 34.3197V34.1443H61.9727ZM57.1768 36.9196H56.3793V34.7017H57.1768V36.9196ZM58.6874 36.9196H57.89V34.7017H58.6874V36.9196ZM60.1981 36.9196H59.4007V34.7017H60.1981V36.9196ZM61.7086 36.9196H60.9113V34.7017H61.7086V36.9196ZM62.2461 37.1192C62.3562 37.1192 62.4454 37.1977 62.4454 37.2947V37.7625C62.4454 37.8594 62.3562 37.9379 62.2461 37.9379H55.8402C55.7301 37.9379 55.6408 37.8594 55.6408 37.7625V37.2947C55.6408 37.1977 55.7301 37.1192 55.8402 37.1192H62.2461Z" fill="#15264A"/>
</g>
<mask id="mask3_8013_44780" style="mask-type:luminance" maskUnits="userSpaceOnUse" x="0" y="0" width="70" height="70">
<path d="M0 0H70V70H0V0Z" fill="white"/>
</mask>
<g mask="url(#mask3_8013_44780)">
<rect x="24.1465" y="19.3237" width="21.706" height="31.3531" rx="1" fill="white"/>
<path d="M45.4943 14.8442H24.5058C23.6745 14.8442 23 15.5184 23 16.3494V53.6504C23 54.4847 23.6745 55.1559 24.5058 55.1559H45.4943C46.3256 55.1559 47.0001 54.4847 47.0001 53.6504V16.3494C47.0001 15.5184 46.3256 14.8442 45.4943 14.8442ZM32.3471 17.012C32.3471 16.7227 32.582 16.4884 32.871 16.4884H37.126C37.415 16.4884 37.653 16.7227 37.653 17.012V17.0335C37.653 17.3224 37.415 17.557 37.126 17.557H32.871C32.582 17.557 32.3471 17.3224 32.3471 17.0335V17.012ZM37.8186 53.208C37.6231 53.4066 37.3487 53.527 37.0509 53.527H32.9492C32.3502 53.527 31.8623 53.0391 31.8623 52.4369C31.8623 52.1357 31.983 51.8647 32.1815 51.6692C32.3774 51.4734 32.6514 51.3496 32.9492 51.3496H37.0509C37.65 51.3496 38.1379 51.8375 38.1379 52.4369C38.1379 52.7382 38.0175 53.0091 37.8186 53.208ZM45.0968 48.4407C45.0968 49.2716 44.4226 49.9468 43.591 49.9468H26.4088C25.5778 49.9468 24.9029 49.2716 24.9029 48.4407V20.7972C24.9029 19.9662 25.5778 19.292 26.4088 19.292H43.591C44.4226 19.292 45.0968 19.9662 45.0968 20.7972V48.4407Z" fill="#15274B"/>
<path d="M41.7046 35.5469C41.7261 31.9902 38.8661 29.0824 35.3177 29.0609C31.7693 29.0393 28.8742 31.9123 28.8526 35.4689C28.831 39.0255 31.6911 41.9334 35.2395 41.9549C38.7878 41.9764 41.683 39.1035 41.7046 35.5469Z" fill="#F9AA50" stroke="#FFD7AA"/>
<path d="M33.5553 39.1403L33.5553 35.6155L32.7168 35.6155L32.7168 34.7242L33.5553 34.7242L33.5553 34.0354L32.7168 34.0354L32.7168 33.1441L33.5553 33.1441L33.5553 31.9995L35.2916 31.9995C35.6335 31.9995 35.9426 32.0468 36.2189 32.1413C36.4951 32.2291 36.7318 32.3709 36.9291 32.5667C37.133 32.7626 37.2908 33.0225 37.4027 33.3466L37.1166 33.1441L38.2708 33.1441L38.2708 34.0354L37.4027 34.0354L37.5309 33.8835C37.5506 33.9848 37.5605 34.0928 37.5605 34.2076C37.5671 34.3224 37.5671 34.4338 37.5605 34.5418C37.5539 34.6499 37.5408 34.7579 37.521 34.866L37.4027 34.7242L38.2708 34.7242L38.2708 35.6155L37.1264 35.6155L37.3829 35.4129C37.2777 35.7235 37.1231 35.9801 36.9193 36.1827C36.722 36.3785 36.4852 36.5237 36.209 36.6183C35.9328 36.7128 35.627 36.7601 35.2916 36.7601L34.818 36.7601L34.818 39.1403L33.5553 39.1403ZM34.818 35.6661L35.3902 35.6661C35.6072 35.6661 35.7947 35.6256 35.9525 35.5446C36.1103 35.4568 36.232 35.3184 36.3175 35.1293C36.403 34.9402 36.4458 34.6904 36.4458 34.3798C36.4458 34.0692 36.403 33.8193 36.3175 33.6303C36.232 33.4412 36.1103 33.3061 35.9525 33.2251C35.8012 33.1373 35.6138 33.0934 35.3902 33.0934L34.818 33.0934L34.818 35.6661Z" fill="#FFD7AA"/>
</g>
</g>
</svg>
