<svg width="70" height="70" viewBox="0 0 70 70" fill="none" xmlns="http://www.w3.org/2000/svg">
<mask id="mask0_8010_44571" style="mask-type:luminance" maskUnits="userSpaceOnUse" x="0" y="0" width="70" height="70">
<path d="M70 0H0V70H70V0Z" fill="white"/>
</mask>
<g mask="url(#mask0_8010_44571)">
<mask id="mask1_8010_44571" style="mask-type:luminance" maskUnits="userSpaceOnUse" x="-157" y="-104" width="384" height="217">
<path d="M-157 -103.7H227V112.3H-157V-103.7Z" fill="white"/>
</mask>
<g mask="url(#mask1_8010_44571)">
<path d="M22.8633 28.0277V34.4645C22.8633 34.5929 22.5868 34.6972 22.2461 34.6972C21.9055 34.6972 21.6289 34.5929 21.6289 34.4645V28.0277C21.6289 27.8992 21.9055 27.7949 22.2461 27.7949C22.5868 27.7949 22.8633 27.8992 22.8633 28.0277Z" fill="#486EBB"/>
<path d="M22.8633 28.0277V34.4645C22.8633 34.5929 22.5868 34.6972 22.2461 34.6972C21.9055 34.6972 21.6289 34.5929 21.6289 34.4645V28.0277C21.6289 27.8992 21.9055 27.7949 22.2461 27.7949C22.5868 27.7949 22.8633 27.8992 22.8633 28.0277Z" stroke="white" stroke-width="0.977151"/>
<path d="M46.8814 22.7358V31.0509C46.8814 31.2169 46.6008 31.3516 46.2551 31.3516C45.9095 31.3516 45.6289 31.2169 45.6289 31.0509V22.7358C45.6289 22.5698 45.9095 22.4351 46.2551 22.4351C46.6008 22.4351 46.8814 22.5698 46.8814 22.7358Z" fill="#486EBB"/>
<path d="M46.8814 22.7358V31.0509C46.8814 31.2169 46.6008 31.3516 46.2551 31.3516C45.9095 31.3516 45.6289 31.2169 45.6289 31.0509V22.7358C45.6289 22.5698 45.9095 22.4351 46.2551 22.4351C46.6008 22.4351 46.8814 22.5698 46.8814 22.7358Z" stroke="white" stroke-width="1.1187"/>
<path d="M34.8904 6.04281V12.0874C34.8904 12.208 34.6078 12.306 34.2596 12.306C33.9115 12.306 33.6289 12.208 33.6289 12.0874V6.04281C33.6289 5.92217 33.9115 5.82422 34.2596 5.82422C34.6078 5.82422 34.8904 5.92217 34.8904 6.04281Z" fill="#486EBB"/>
<path d="M34.8904 6.04281V12.0874C34.8904 12.208 34.6078 12.306 34.2596 12.306C33.9115 12.306 33.6289 12.208 33.6289 12.0874V6.04281C33.6289 5.92217 33.9115 5.82422 34.2596 5.82422C34.6078 5.82422 34.8904 5.92217 34.8904 6.04281Z" stroke="white" stroke-width="0.957239"/>
</g>
<mask id="mask2_8010_44571" style="mask-type:luminance" maskUnits="userSpaceOnUse" x="-141" y="-96" width="386" height="219">
<path d="M-139.125 -95.7881L244.868 -93.4586L243.558 122.537L-140.435 120.208L-139.125 -95.7881Z" fill="white"/>
</mask>
<g mask="url(#mask2_8010_44571)">
<path d="M35.2358 7.47198C40.194 7.50206 44.1952 11.5521 44.1651 16.5103C44.135 21.4685 40.085 25.4697 35.1268 25.4396C30.1686 25.4096 26.1674 21.3595 26.1975 16.4013C26.2275 11.4431 30.2776 7.4419 35.2358 7.47198Z" fill="#FFD7AA"/>
<path d="M35.2358 7.47198C40.194 7.50206 44.1952 11.5521 44.1651 16.5103C44.135 21.4685 40.085 25.4697 35.1268 25.4396C30.1686 25.4096 26.1674 21.3595 26.1975 16.4013C26.2275 11.4431 30.2776 7.4419 35.2358 7.47198Z" stroke="white"/>
<path d="M35.2755 8.92617C39.3976 8.95117 42.724 12.3302 42.6989 16.4669C42.6738 20.6036 39.3067 23.9419 35.1846 23.9169C31.0625 23.8919 27.7361 20.5129 27.7612 16.3762C27.7863 12.2395 31.1534 8.90116 35.2755 8.92617Z" fill="#F9AA50"/>
<path d="M34.9248 21.588L33.2569 17.4704L32.2774 17.8671L31.8556 16.8259L32.8352 16.4292L32.5093 15.6246L31.5297 16.0213L31.108 14.9801L32.0875 14.5833L31.5459 13.2463L33.5742 12.4248C33.9736 12.263 34.3571 12.1719 34.7245 12.1516C35.0887 12.1235 35.4324 12.1771 35.7555 12.3125C36.0863 12.4448 36.3937 12.6738 36.6777 12.9995L36.2476 12.8983L37.5959 12.3521L38.0177 13.3934L37.0036 13.8041L37.0815 13.566C37.1525 13.6749 37.2151 13.7965 37.2695 13.9306C37.3315 14.0616 37.3842 14.1917 37.4276 14.321C37.471 14.4504 37.5068 14.5828 37.5349 14.7183L37.3295 14.6087L38.3436 14.1979L38.7654 15.2392L37.4286 15.7806L37.6323 15.4226C37.6564 15.8353 37.5973 16.2082 37.455 16.5413C37.3171 16.8634 37.1093 17.145 36.8313 17.3861C36.5534 17.6273 36.2185 17.8272 35.8267 17.9859L35.2736 18.2099L36.3998 20.9905L34.9248 21.588ZM34.7559 16.9321L35.4243 16.6613C35.6779 16.5586 35.8776 16.4226 36.0237 16.2533C36.1665 16.0761 36.2432 15.8568 36.2536 15.5955C36.264 15.3341 36.1957 15.022 36.0487 14.6592C35.9017 14.2963 35.7336 14.0247 35.5443 13.8443C35.3549 13.6639 35.1489 13.5637 34.9262 13.5437C34.7079 13.5127 34.4682 13.5502 34.207 13.656L33.5386 13.9267L34.7559 16.9321Z" fill="#FFD7AA"/>
</g>
<path d="M51.6544 63.8886H16.5978C13.8146 63.8886 11.5586 61.6326 11.5586 58.8496V36.7656C11.5586 33.9826 13.8146 31.7266 16.5978 31.7266H51.6544C54.4376 31.7266 56.6934 33.9826 56.6934 36.7656V58.8496C56.6934 61.6326 54.4376 63.8886 51.6544 63.8886Z" fill="#15264A"/>
<path d="M56.8071 53.1496H44.8621C44.0625 53.1496 43.4141 52.5014 43.4141 51.7018V45.2732C43.4141 44.4736 44.0625 43.8252 44.8621 43.8252H56.8071C57.6067 43.8252 58.2549 44.4736 58.2549 45.2732V51.7018C58.2549 52.5014 57.6067 53.1496 56.8071 53.1496Z" fill="#0B0C0D"/>
<path d="M48.1645 48.4874C48.1645 49.4616 47.3747 50.2512 46.4007 50.2512C45.4265 50.2512 44.6367 49.4616 44.6367 48.4874C44.6367 47.5132 45.4265 46.7236 46.4007 46.7236C47.3747 46.7236 48.1645 47.5132 48.1645 48.4874Z" fill="#F9AA50"/>
</g>
</svg>
