<svg width="70" height="70" viewBox="0 0 70 70" fill="none" xmlns="http://www.w3.org/2000/svg">
<g clip-path="url(#clip0_8009_44226)">
<mask id="mask0_8009_44226" style="mask-type:luminance" maskUnits="userSpaceOnUse" x="0" y="0" width="70" height="70">
<path d="M70 0H0V70H70V0Z" fill="white"/>
</mask>
<g mask="url(#mask0_8009_44226)">
<path d="M9.64908 16.7124H60.3503C62.3368 16.7124 63.9621 18.3364 63.9621 20.3211V49.591C63.9621 51.5758 62.3368 53.1997 60.3503 53.1997H9.64908C7.66249 53.1997 6.03711 51.5758 6.03711 49.591V20.3211C6.03711 18.3364 7.66249 16.7124 9.64908 16.7124Z" fill="#181E2A"/>
<path d="M13.9114 26.9097H20.5669C21.2659 26.9097 21.8379 27.481 21.8379 28.1794V33.1914C21.8379 33.8897 21.2659 34.4611 20.5669 34.4611H13.9114C13.2125 34.4611 12.6406 33.8897 12.6406 33.1914V28.1794C12.6406 27.481 13.2125 26.9097 13.9114 26.9097Z" fill="#E18C40"/>
<path d="M15.7375 26.646H16.1723V34.7244H15.7375V32.2189H12.4102V31.7845H15.7375V29.586H12.4102V29.1516H15.7375V26.646ZM18.3727 26.646H18.8075V29.1516H22.1345V29.586H18.8075V31.7845H22.1345V32.2189H18.8075V34.7244H18.3727V26.646Z" fill="black"/>
<path d="M13.577 20.3271H31.2356C31.7506 20.3271 32.1719 20.7481 32.1719 21.2627C32.1719 21.7773 31.7506 22.1983 31.2356 22.1983H13.577C13.0618 22.1983 12.6406 21.7773 12.6406 21.2627C12.6406 20.7481 13.0618 20.3271 13.577 20.3271Z" fill="#879DC7"/>
<path d="M14.5305 37.4648H19.6665C20.7059 37.4648 21.5563 38.3146 21.5563 39.353C21.5563 40.3914 20.7059 41.2411 19.6665 41.2411H14.5305C13.4911 41.2411 12.6406 40.3914 12.6406 39.353C12.6406 38.3146 13.4911 37.4648 14.5305 37.4648Z" fill="white"/>
<path d="M26.175 37.4648H31.3111C32.3505 37.4648 33.2009 38.3146 33.2009 39.353C33.2009 40.3914 32.3505 41.2411 31.3111 41.2411H26.175C25.1357 41.2411 24.2852 40.3914 24.2852 39.353C24.2852 38.3146 25.1357 37.4648 26.175 37.4648Z" fill="white"/>
<path d="M37.8196 37.4648H42.9555C43.995 37.4648 44.8454 38.3146 44.8454 39.353C44.8454 40.3914 43.995 41.2411 42.9555 41.2411H37.8196C36.7801 41.2411 35.9297 40.3914 35.9297 39.353C35.9297 38.3146 36.7801 37.4648 37.8196 37.4648Z" fill="white"/>
<path d="M49.4641 37.4648H54.6001C55.6395 37.4648 56.4899 38.3146 56.4899 39.353C56.4899 40.3913 55.6395 41.2411 54.6001 41.2411H49.4641C48.4247 41.2411 47.5742 40.3913 47.5742 39.353C47.5742 38.3146 48.4247 37.4648 49.4641 37.4648Z" fill="white"/>
<path d="M13.577 44.7256H19.7375C20.2524 44.7256 20.6738 45.1466 20.6738 45.6611C20.6738 46.1758 20.2524 46.5967 19.7375 46.5967H13.577C13.0619 46.5967 12.6406 46.1758 12.6406 45.6611C12.6406 45.1466 13.0619 44.7256 13.577 44.7256Z" fill="#879DC7"/>
<path d="M13.5771 47.8657H21.2469C21.7619 47.8657 22.1833 48.2867 22.1833 48.8013C22.1833 49.3159 21.7619 49.7368 21.2469 49.7368H13.5771C13.0621 49.7368 12.6406 49.3159 12.6406 48.8013C12.6406 48.2867 13.0621 47.8657 13.5771 47.8657Z" fill="#879DC7"/>
<path d="M24.6103 47.8657H38.2136C38.7287 47.8657 39.15 48.2867 39.15 48.8013C39.15 49.3159 38.7287 49.7368 38.2136 49.7368H24.6103C24.0952 49.7368 23.6738 49.3159 23.6738 48.8013C23.6738 48.2867 24.0952 47.8657 24.6103 47.8657Z" fill="#879DC7"/>
<path d="M54.3196 21.9202C54.1968 21.7954 54.1985 21.5945 54.3234 21.4719C54.4483 21.3491 54.6493 21.3507 54.7722 21.4755C55.0875 21.7971 55.3471 22.2322 55.524 22.7402C55.6916 23.2215 55.7869 23.7692 55.7869 24.3469C55.7869 24.9285 55.6904 25.4796 55.5208 25.963C55.3412 26.4738 55.0786 26.9106 54.7594 27.231C54.636 27.3551 54.4349 27.3555 54.3108 27.2322C54.1866 27.1088 54.1861 26.9081 54.3095 26.784C54.5627 26.5298 54.774 26.1753 54.9218 25.7546C55.0675 25.3394 55.1503 24.8597 55.1503 24.3469C55.1503 23.8374 55.0686 23.3613 54.925 22.9488C54.7789 22.5293 54.57 22.1753 54.3196 21.9202ZM51.2956 23.6256C51.1886 23.4871 51.2141 23.2879 51.3527 23.1809C51.4913 23.074 51.6908 23.0995 51.7978 23.238C51.8996 23.37 51.9822 23.5453 52.037 23.7462C52.0872 23.9304 52.1159 24.1368 52.1159 24.3507C52.1159 24.567 52.0869 24.7749 52.0361 24.9596L52.0316 24.9743C51.976 25.1699 51.8939 25.3401 51.7934 25.4687C51.6858 25.6064 51.4862 25.6309 51.3484 25.5234C51.2105 25.4158 51.186 25.2164 51.2937 25.0788C51.3443 25.0138 51.3883 24.9191 51.4213 24.8033L51.4244 24.7908C51.4593 24.6639 51.4793 24.5139 51.4793 24.3507C51.4793 24.1877 51.4596 24.0385 51.4254 23.9126C51.3926 23.7921 51.3474 23.693 51.2956 23.6256ZM52.2933 23.0263C52.1809 22.8926 52.198 22.6929 52.3318 22.5805C52.4656 22.4682 52.6656 22.4853 52.7781 22.619C52.9467 22.8194 53.0839 23.0857 53.1755 23.3926C53.261 23.6792 53.3097 24.0056 53.3097 24.3493C53.3097 24.6956 53.2604 25.0237 53.1739 25.3116C53.0806 25.6216 52.9417 25.8893 52.7713 26.0889C52.6575 26.2219 52.4569 26.2375 52.3239 26.1237C52.1908 26.01 52.1751 25.8097 52.289 25.6767C52.4012 25.5451 52.4964 25.3569 52.5647 25.1301C52.6337 24.9003 52.6731 24.6342 52.6731 24.3493C52.6731 24.0664 52.6343 23.8022 52.5662 23.574C52.4984 23.3465 52.404 23.1579 52.2933 23.0263ZM53.2834 22.4541C53.4663 22.6501 53.6199 22.9241 53.728 23.2505C53.8355 23.5753 53.8968 23.949 53.8968 24.348C53.8968 24.7511 53.835 25.1272 53.7267 25.4518C53.6175 25.779 53.4622 26.0536 53.2771 26.2489C53.1564 26.3756 53.1614 26.5766 53.2883 26.6973C53.4153 26.8179 53.6165 26.8128 53.7372 26.686C53.9857 26.4237 54.1898 26.0681 54.3285 25.653C54.4592 25.2619 54.5334 24.8169 54.5334 24.348C54.5334 23.8808 54.4603 23.4391 54.3321 23.0519C54.1955 22.6394 53.9938 22.2848 53.7483 22.0218C53.6289 21.8936 53.4278 21.8864 53.2995 22.0057C53.1712 22.1249 53.164 22.3259 53.2834 22.4541Z" fill="#879DC7"/>
<path d="M47.2524 43.873H54.9502C55.7969 43.873 56.4897 44.5652 56.4897 45.4112V48.199C56.4897 49.045 55.7969 49.7371 54.9502 49.7371H47.2524C46.4057 49.7371 45.7129 49.045 45.7129 48.199V45.4112C45.7129 44.5652 46.4057 43.873 47.2524 43.873Z" fill="#FF7B00"/>
</g>
</g>
<defs>
<clipPath id="clip0_8009_44226">
<rect width="70" height="70" fill="white"/>
</clipPath>
</defs>
</svg>
